# xmcd CD database file
#
# Track frame offsets:
#	150
#	19241
#	47821
#	61772
#	97252
#	116920
#	138296
#	153671
#	184271
#	203846
#	226761
#	262227
#	281758
#
# Disc length: 4013 seconds
#
# Revision: 1
# Processed by: cddbd v1.5.2PL0 Copyright (c) Steve Scherf et al.
# Submitted via: CDex 1.51
#
DISCID=c40fab0d
DTITLE=Infamous Stringdusters - We'll Do It Live
DYEAR=2011
DGENRE=Bluegrass
TTITLE0=Fork In The Road
TTITLE1=The Hitchhiker
TTITLE2=Long Lonesome Day
TTITLE3=Getting Down The Road
TTITLE4=Get It While You Can
TTITLE5=Masquerade
TTITLE6=Ain't No Way of Knowing
TTITLE7=Well, Well 
TTITLE8=How Far I'd Fall For You
TTITLE9=All The Same
TTITLE10=No More To Leave You Behind
TTITLE11=Echoes of Goodbye
TTITLE12=Keep On Truckin' 
EXTD=YEAR: 2011
EXTT0=
EXTT1=
EXTT2=
EXTT3=
EXTT4=
EXTT5=
EXTT6=
EXTT7=
EXTT8=
EXTT9=
EXTT10=
EXTT11=
EXTT12=
PLAYORDER=
